<svg width="25" height="25" viewBox="0 0 25 25" fill="none" xmlns="http://www.w3.org/2000/svg">
<path d="M12.5 0.390625C5.81055 0.390625 0.390625 5.81055 0.390625 12.5C0.390625 19.1895 5.81055 24.6094 12.5 24.6094C19.1895 24.6094 24.6094 19.1895 24.6094 12.5C24.6094 5.81055 19.1895 0.390625 12.5 0.390625ZM19.5312 13.8672C19.5312 14.1895 19.2676 14.4531 18.9453 14.4531H14.4531V18.9453C14.4531 19.2676 14.1895 19.5312 13.8672 19.5312H11.1328C10.8105 19.5312 10.5469 19.2676 10.5469 18.9453V14.4531H6.05469C5.73242 14.4531 5.46875 14.1895 5.46875 13.8672V11.1328C5.46875 10.8105 5.73242 10.5469 6.05469 10.5469H10.5469V6.05469C10.5469 5.73242 10.8105 5.46875 11.1328 5.46875H13.8672C14.1895 5.46875 14.4531 5.73242 14.4531 6.05469V10.5469H18.9453C19.2676 10.5469 19.5312 10.8105 19.5312 11.1328V13.8672Z" fill="#7000FF"/>
</svg>
